<svg xmlns="http://www.w3.org/2000/svg" width="960" height="610" viewBox="0 0 960 610">
  <style>
    text { font-family: -apple-system, 'Helvetica Neue', Arial, sans-serif; }
    .env-label { font-size: 14px; font-weight: 700; }
    .env-sub { font-size: 10px; fill: #666; }
    .step-bold { font-size: 11px; fill: #333; font-weight: 600; }
    .detail { font-size: 10px; fill: #666; }
    .dim { font-size: 10px; fill: #555; font-weight: 600; }
    .arrow-label { font-size: 10px; fill: #555; font-style: italic; }
    .or-label { font-size: 10px; fill: #888; font-weight: 600; font-style: italic; }
  </style>
  <defs>
    <marker id="a1" markerWidth="8" markerHeight="6" refX="8" refY="3" orient="auto">
      <path d="M0,0 L8,3 L0,6" fill="none" stroke="#888" stroke-width="1.2"/>
    </marker>
    <marker id="a1-blue" markerWidth="8" markerHeight="6" refX="8" refY="3" orient="auto">
      <path d="M0,0 L8,3 L0,6" fill="none" stroke="#5B9BD5" stroke-width="1.2"/>
    </marker>
    <marker id="a1-orange" markerWidth="8" markerHeight="6" refX="8" refY="3" orient="auto">
      <path d="M0,0 L8,3 L0,6" fill="none" stroke="#ED7D31" stroke-width="1.2"/>
    </marker>
  </defs>

  <!-- ── Swim lane backgrounds ── -->
  <rect x="0" y="0" width="480" height="610" fill="#F0F4F8"/>
  <rect x="480" y="0" width="480" height="610" fill="#FDF6EE"/>

  <line x1="480" y1="0" x2="480" y2="620" stroke="#ddd" stroke-width="1"/>

  <!-- ── Lane headers ── -->
  <rect x="0" y="0" width="480" height="50" fill="#D6E4F0"/>
  <text x="240" y="22" text-anchor="middle" class="env-label" fill="#2B5797">HPC</text>
  <text x="240" y="38" text-anchor="middle" class="env-sub">Scientists run scripts directly, no CI/CD</text>

  <rect x="480" y="0" width="480" height="50" fill="#F5E6D0"/>
  <text x="720" y="22" text-anchor="middle" class="env-label" fill="#8B5E3C">Source.Coop</text>
  <text x="720" y="38" text-anchor="middle" class="env-sub">S3-compatible object storage (Icechunk store only)</text>

  <!-- ── Title ── -->
  <text x="480" y="78" text-anchor="middle" font-size="15" font-weight="700" fill="#1a1a2e" font-family="-apple-system, 'Helvetica Neue', Arial, sans-serif">Option 2: Direct from HPC (no GitHub Actions)</text>

  <!-- ══════════════════════════════════════════════════════ -->
  <!-- INGEST SECTION -->
  <!-- ══════════════════════════════════════════════════════ -->
  <rect x="15" y="95" width="450" height="3" rx="1" fill="#5B9BD5"/>
  <text x="20" y="115" font-size="12" font-weight="700" fill="#2B5797" font-family="-apple-system, 'Helvetica Neue', Arial, sans-serif">Initial Ingest</text>

  <!-- Step 1: Run model -->
  <rect x="30" y="130" width="430" height="50" rx="8" fill="#fff" stroke="#5B9BD5" stroke-width="1.5"/>
  <text x="46" y="150" class="step-bold" fill="#2B5797">1</text>
  <circle cx="46" cy="146" r="10" fill="none" stroke="#5B9BD5" stroke-width="1.2"/>
  <text x="64" y="152" class="step-bold">Run ice-sheet model</text>
  <text x="40" y="170" class="detail">Output: realizations.nc on local filesystem (100 realizations, 13334 x 13334)</text>

  <!-- Step 2: Run ingest script -->
  <rect x="30" y="200" width="430" height="65" rx="8" fill="#fff" stroke="#5B9BD5" stroke-width="1.5"/>
  <text x="46" y="220" class="step-bold" fill="#2B5797">2</text>
  <circle cx="46" cy="216" r="10" fill="none" stroke="#5B9BD5" stroke-width="1.2"/>
  <text x="64" y="222" class="step-bold">Run ingest script</text>
  <text x="40" y="240" class="detail">uv run python scripts/local_ingest.py /data/realizations.nc</text>
  <text x="40" y="254" class="detail">Reads local NetCDF, streams batches directly to Icechunk</text>

  <line x1="245" y1="180" x2="245" y2="200" stroke="#5B9BD5" stroke-width="1.5" marker-end="url(#a1-blue)"/>

  <!-- Arrow: ingest → Source.Coop -->
  <path d="M460,232 L500,232" fill="none" stroke="#5B9BD5" stroke-width="1.5" marker-end="url(#a1-blue)"/>
  <text x="465" y="224" class="arrow-label">write</text>

  <!-- Source.Coop: Icechunk created -->
  <rect x="500" y="130" width="440" height="140" rx="8" fill="#fff" stroke="#D4915E" stroke-width="1.5"/>
  <!-- 3D cube -->
  <polygon points="520,160 590,160 602,153 532,153" fill="#BDD7EE" stroke="#5B9BD5" stroke-width="1"/>
  <polygon points="520,160 590,160 590,205 520,205" fill="#BDD7EE" stroke="#5B9BD5" stroke-width="1"/>
  <polygon points="590,160 602,153 602,198 590,205" fill="#9DC3E6" stroke="#5B9BD5" stroke-width="1"/>
  <!-- chunk lines -->
  <line x1="543" y1="160" x2="543" y2="205" stroke="#5B9BD5" stroke-width="0.5" stroke-dasharray="2,2" opacity="0.5"/>
  <line x1="566" y1="160" x2="566" y2="205" stroke="#5B9BD5" stroke-width="0.5" stroke-dasharray="2,2" opacity="0.5"/>
  <line x1="520" y1="175" x2="590" y2="175" stroke="#5B9BD5" stroke-width="0.5" stroke-dasharray="2,2" opacity="0.5"/>
  <line x1="520" y1="190" x2="590" y2="190" stroke="#5B9BD5" stroke-width="0.5" stroke-dasharray="2,2" opacity="0.5"/>

  <text x="614" y="162" class="step-bold">realizations.icechunk</text>
  <text x="614" y="178" class="detail">(100, 13334, 13334) float32</text>
  <text x="614" y="194" class="detail">shards (100, 512, 512), zstd</text>
  <text x="614" y="210" class="detail">EPSG:3031, 500 m</text>
  <text x="510" y="240" class="dim">No source data uploaded to S3</text>
  <text x="510" y="254" class="dim">Only the Icechunk store lives on Source.Coop</text>

  <!-- ══════════════════════════════════════════════════════ -->
  <!-- UPDATE SECTION -->
  <!-- ══════════════════════════════════════════════════════ -->
  <rect x="15" y="295" width="440" height="3" rx="1" fill="#ED7D31"/>
  <text x="20" y="315" font-size="12" font-weight="700" fill="#B45F06" font-family="-apple-system, 'Helvetica Neue', Arial, sans-serif">Basin Update</text>

  <!-- Step 3: Data source (local or S3) -->
  <rect x="30" y="330" width="390" height="75" rx="8" fill="#fff" stroke="#ED7D31" stroke-width="1.5"/>
  <text x="46" y="350" class="step-bold" fill="#B45F06">3</text>
  <circle cx="46" cy="346" r="10" fill="none" stroke="#ED7D31" stroke-width="1.2"/>
  <text x="64" y="352" class="step-bold">Prepare basin data</text>
  <text x="40" y="370" class="detail">Local: mask.npy + data.npy from HPC model run</text>
  <text x="40" y="386" class="or-label">or</text>
  <text x="56" y="386" class="detail">S3: reuse .npy already on Source.Coop</text>

  <!-- Step 4: Run update script -->
  <rect x="30" y="420" width="390" height="95" rx="8" fill="#fff" stroke="#ED7D31" stroke-width="1.5"/>
  <text x="46" y="440" class="step-bold" fill="#B45F06">4</text>
  <circle cx="46" cy="436" r="10" fill="none" stroke="#ED7D31" stroke-width="1.2"/>
  <text x="64" y="442" class="step-bold">Run basin update script</text>
  <text x="40" y="460" class="detail">uv run python scripts/local_basin_update.py \</text>
  <text x="50" y="473" class="detail">--basin jakobshavn --date 2025-04 \</text>
  <text x="50" y="486" class="detail">--mask mask.npy --data data.npy</text>
  <text x="40" y="505" class="detail">Read-modify-write: masked pixels only</text>

  <line x1="225" y1="405" x2="225" y2="420" stroke="#ED7D31" stroke-width="1.5" marker-end="url(#a1-orange)"/>

  <!-- Arrow: read bbox from Source.Coop -->
  <path d="M555,420 L555,450 L420,450" fill="none" stroke="#ED7D31" stroke-width="1.2" stroke-dasharray="5,3" marker-end="url(#a1-orange)"/>
  <text x="460" y="443" class="arrow-label">read bbox</text>

  <!-- Arrow: write bbox to Source.Coop -->
  <path d="M420,490 L555,490 L555,510" fill="none" stroke="#ED7D31" stroke-width="1.5" marker-end="url(#a1-orange)"/>
  <text x="460" y="483" class="arrow-label">write bbox</text>

  <!-- Source.Coop: updated store -->
  <rect x="500" y="340" width="440" height="80" rx="8" fill="#fff" stroke="#D4915E" stroke-width="1.5"/>
  <!-- 3D cube grey -->
  <polygon points="520,355 575,355 585,349 530,349" fill="#D9D9D9" stroke="#A6A6A6" stroke-width="1"/>
  <polygon points="520,355 575,355 575,395 520,395" fill="#E8E8E8" stroke="#A6A6A6" stroke-width="1"/>
  <polygon points="575,355 585,349 585,389 575,395" fill="#CBCBCB" stroke="#A6A6A6" stroke-width="1"/>
  <!-- bbox outline (dashed) -->
  <rect x="540" y="358" width="28" height="24" fill="none" stroke="#ED7D31" stroke-width="1" stroke-dasharray="3,2" rx="1"/>
  <!-- basin mask (irregular ellipse inside bbox) -->
  <ellipse cx="554" cy="370" rx="10" ry="8" fill="#F4B183" stroke="#ED7D31" stroke-width="1.5"/>

  <text x="600" y="365" class="step-bold">Existing Icechunk store</text>
  <text x="600" y="381" class="detail">Bbox read from here, then written back</text>
  <text x="600" y="397" class="detail">Only masked pixels change (orange)</text>

  <!-- Source.Coop: result after write -->
  <rect x="500" y="515" width="440" height="80" rx="8" fill="#fff" stroke="#D4915E" stroke-width="1.5"/>
  <polygon points="520,530 575,530 585,524 530,524" fill="#D9D9D9" stroke="#A6A6A6" stroke-width="1"/>
  <polygon points="520,530 575,530 575,570 520,570" fill="#E8E8E8" stroke="#A6A6A6" stroke-width="1"/>
  <polygon points="575,530 585,524 585,564 575,570" fill="#CBCBCB" stroke="#A6A6A6" stroke-width="1"/>
  <ellipse cx="554" cy="548" rx="10" ry="8" fill="#F4B183" stroke="#ED7D31" stroke-width="1.5"/>

  <text x="600" y="540" class="step-bold">Updated store (committed)</text>
  <text x="600" y="556" class="detail">Non-masked pixels in bbox preserved</text>
  <text x="600" y="572" class="detail">Versioned snapshot, previous data accessible</text>
  <text x="600" y="588" class="dim">Safe for overlapping basin bounding boxes</text>

  <!-- ══════════════════════════════════════════════════════ -->
  <!-- READ BACK -->
  <!-- ══════════════════════════════════════════════════════ -->
  <rect x="30" y="565" width="390" height="40" rx="8" fill="#fff" stroke="#5B9BD5" stroke-width="1.5"/>
  <text x="50" y="590" class="step-bold">Analyse: xr.open_zarr(session.store)</text>

  <path d="M500,575 L420,580" fill="none" stroke="#5B9BD5" stroke-width="1.2" stroke-dasharray="5,3" marker-end="url(#a1-blue)"/>
  <text x="440" y="570" class="arrow-label">read</text>
</svg>
